<svg width="254" height="40" viewBox="0 0 254 40" fill="none" xmlns="http://www.w3.org/2000/svg">
<path d="M11.7949 24L10.2588 19.6387H4.25391L2.71777 24H0L5.84375 8.23047H8.70117L14.5342 24H11.7949ZM9.59277 17.4258L8.09961 13.1289C8.04232 12.9427 7.95996 12.6813 7.85254 12.3447C7.74512 12.001 7.6377 11.6536 7.53027 11.3027C7.42285 10.9447 7.33333 10.6439 7.26172 10.4004C7.1901 10.694 7.10059 11.0234 6.99316 11.3887C6.8929 11.7467 6.79264 12.0833 6.69238 12.3984C6.59928 12.7135 6.52767 12.957 6.47754 13.1289L4.97363 17.4258H9.59277ZM18.214 12.1084V24H15.6896V12.1084H18.214ZM16.9679 7.55371C17.3546 7.55371 17.6877 7.65755 17.967 7.86523C18.2534 8.07292 18.3966 8.43099 18.3966 8.93945C18.3966 9.44076 18.2534 9.79883 17.967 10.0137C17.6877 10.2214 17.3546 10.3252 16.9679 10.3252C16.5669 10.3252 16.2267 10.2214 15.9474 10.0137C15.6753 9.79883 15.5392 9.44076 15.5392 8.93945C15.5392 8.43099 15.6753 8.07292 15.9474 7.86523C16.2267 7.65755 16.5669 7.55371 16.9679 7.55371ZM29.1663 20.6055C29.1663 21.3861 28.9765 22.0449 28.597 22.582C28.2174 23.1191 27.6624 23.5273 26.932 23.8066C26.2086 24.0788 25.3206 24.2148 24.2679 24.2148C23.4372 24.2148 22.721 24.154 22.1195 24.0322C21.5251 23.9176 20.9629 23.7386 20.4329 23.4951V21.3145C20.9987 21.5794 21.6325 21.8086 22.3343 22.002C23.0433 22.1953 23.7129 22.292 24.3431 22.292C25.1738 22.292 25.7718 22.1631 26.137 21.9053C26.5023 21.6403 26.6849 21.2894 26.6849 20.8525C26.6849 20.5947 26.6097 20.3656 26.4593 20.165C26.3161 19.9574 26.0439 19.7461 25.6429 19.5312C25.249 19.3092 24.6689 19.0443 23.9027 18.7363C23.1507 18.4355 22.5169 18.1348 22.0013 17.834C21.4857 17.5332 21.0954 17.1715 20.8304 16.749C20.5654 16.3193 20.4329 15.7715 20.4329 15.1055C20.4329 14.0527 20.8483 13.2542 21.679 12.71C22.5169 12.1585 23.6234 11.8828 24.9984 11.8828C25.7288 11.8828 26.4163 11.958 27.0609 12.1084C27.7126 12.2516 28.3499 12.4629 28.973 12.7422L28.178 14.6436C27.6409 14.4072 27.1002 14.2139 26.556 14.0635C26.0189 13.9059 25.471 13.8271 24.9124 13.8271C24.2607 13.8271 23.763 13.9274 23.4193 14.1279C23.0827 14.3285 22.9144 14.6149 22.9144 14.9873C22.9144 15.2666 22.9967 15.5029 23.1614 15.6963C23.3262 15.8896 23.609 16.083 24.0101 16.2764C24.4183 16.4697 24.984 16.7096 25.7073 16.9961C26.4163 17.2682 27.0286 17.5547 27.5443 17.8555C28.067 18.1491 28.4681 18.5107 28.7474 18.9404C29.0267 19.3701 29.1663 19.9251 29.1663 20.6055ZM29.4409 12.1084H32.1909L34.6294 18.8975C34.7368 19.2054 34.8335 19.5098 34.9194 19.8105C35.0125 20.1042 35.0913 20.3942 35.1557 20.6807C35.2274 20.9671 35.2846 21.2536 35.3276 21.54H35.3921C35.4637 21.1676 35.5639 20.7523 35.6929 20.2939C35.8289 19.8285 35.9793 19.363 36.144 18.8975L38.4858 12.1084H41.2036L36.1011 25.6328C35.8074 26.4062 35.4458 27.0651 35.0161 27.6094C34.5936 28.1608 34.0923 28.5762 33.5122 28.8555C32.9321 29.1419 32.2697 29.2852 31.5249 29.2852C31.1668 29.2852 30.8553 29.2637 30.5903 29.2207C30.3253 29.1849 30.0998 29.1455 29.9136 29.1025V27.083C30.0639 27.1188 30.2537 27.151 30.4829 27.1797C30.7121 27.2083 30.9484 27.2227 31.1919 27.2227C31.643 27.2227 32.0333 27.1331 32.3628 26.9541C32.6922 26.7751 32.9715 26.5208 33.2007 26.1914C33.4298 25.8691 33.6196 25.5003 33.77 25.085L34.1889 23.9678L29.4409 12.1084ZM47.0104 11.8828C48.5143 11.8828 49.6494 12.2158 50.4157 12.8818C51.1891 13.5479 51.5758 14.5863 51.5758 15.9971V24H49.7819L49.2985 22.3135H49.2125C48.876 22.7432 48.5286 23.0977 48.1705 23.377C47.8125 23.6562 47.3971 23.8639 46.9245 24C46.459 24.1432 45.8896 24.2148 45.2164 24.2148C44.5075 24.2148 43.8737 24.0859 43.3151 23.8281C42.7565 23.5632 42.3161 23.1621 41.9938 22.625C41.6715 22.0879 41.5104 21.4076 41.5104 20.584C41.5104 19.3594 41.9651 18.4391 42.8746 17.8232C43.7913 17.2074 45.1735 16.8672 47.0211 16.8027L49.0836 16.7275V16.1045C49.0836 15.2809 48.8903 14.6937 48.5036 14.3428C48.124 13.9919 47.5869 13.8164 46.8922 13.8164C46.2978 13.8164 45.7213 13.9023 45.1627 14.0742C44.6041 14.2461 44.0599 14.4574 43.5299 14.708L42.7135 12.9248C43.2936 12.6169 43.9524 12.3662 44.6901 12.1729C45.4349 11.9795 46.2083 11.8828 47.0104 11.8828ZM49.0729 18.3174L47.5368 18.3711C46.2763 18.4141 45.3919 18.6289 44.8834 19.0156C44.375 19.4023 44.1207 19.9323 44.1207 20.6055C44.1207 21.1927 44.2962 21.6224 44.6471 21.8945C44.998 22.1595 45.4599 22.292 46.0329 22.292C46.9066 22.292 47.6299 22.0449 48.2028 21.5508C48.7829 21.0495 49.0729 20.3154 49.0729 19.3486V18.3174ZM56.9744 7.28516V11.4854C56.9744 11.9222 56.9601 12.3483 56.9314 12.7637C56.91 13.179 56.8849 13.5013 56.8563 13.7305H56.9959C57.2466 13.3151 57.5545 12.9749 57.9197 12.71C58.285 12.4378 58.6932 12.2337 59.1443 12.0977C59.6027 11.9616 60.0896 11.8936 60.6053 11.8936C61.5148 11.8936 62.2882 12.0475 62.9256 12.3555C63.563 12.6562 64.0499 13.1253 64.3865 13.7627C64.7303 14.4001 64.9021 15.2272 64.9021 16.2441V24H62.3777V16.7168C62.3777 15.793 62.188 15.1019 61.8084 14.6436C61.4288 14.1781 60.8416 13.9453 60.0467 13.9453C59.2804 13.9453 58.6717 14.1064 58.2205 14.4287C57.7765 14.7438 57.4578 15.2129 57.2645 15.8359C57.0711 16.4518 56.9744 17.2038 56.9744 18.0918V24H54.45V7.28516H56.9744ZM82.1554 19.7246C82.1554 20.6556 81.9262 21.4577 81.4679 22.1309C81.0167 22.804 80.365 23.3197 79.5128 23.6777C78.6678 24.0358 77.658 24.2148 76.4835 24.2148C75.9106 24.2148 75.3627 24.1826 74.84 24.1182C74.3172 24.0537 73.823 23.9606 73.3575 23.8389C72.8992 23.71 72.4803 23.556 72.1007 23.377V20.9492C72.7381 21.2285 73.4506 21.4827 74.2384 21.7119C75.0262 21.9339 75.8282 22.0449 76.6446 22.0449C77.3107 22.0449 77.8621 21.959 78.2989 21.7871C78.743 21.6081 79.0724 21.3574 79.2872 21.0352C79.5021 20.7057 79.6095 20.3226 79.6095 19.8857C79.6095 19.4202 79.4842 19.0264 79.2335 18.7041C78.9829 18.3818 78.6033 18.0882 78.0948 17.8232C77.5935 17.5511 76.9633 17.2611 76.2042 16.9531C75.6886 16.7454 75.1945 16.5091 74.7218 16.2441C74.2563 15.9792 73.8409 15.6676 73.4757 15.3096C73.1105 14.9515 72.8204 14.529 72.6056 14.042C72.3979 13.5479 72.2941 12.9678 72.2941 12.3018C72.2941 11.4137 72.5053 10.6546 72.9278 10.0244C73.3575 9.39421 73.9591 8.91081 74.7325 8.57422C75.5131 8.23763 76.4226 8.06934 77.4611 8.06934C78.2846 8.06934 79.0581 8.15527 79.7814 8.32715C80.5118 8.49902 81.228 8.74251 81.9298 9.05762L81.1134 11.1309C80.4689 10.8659 79.8422 10.6546 79.2335 10.4971C78.632 10.3395 78.0161 10.2607 77.3859 10.2607C76.8416 10.2607 76.3797 10.3431 76.0001 10.5078C75.6206 10.6725 75.3305 10.9053 75.13 11.2061C74.9366 11.4997 74.84 11.8506 74.84 12.2588C74.84 12.7171 74.951 13.1038 75.173 13.4189C75.4021 13.7269 75.753 14.0098 76.2257 14.2676C76.7055 14.5254 77.3214 14.8118 78.0734 15.127C78.9399 15.485 79.6739 15.861 80.2755 16.2549C80.8842 16.6488 81.3497 17.1214 81.672 17.6729C81.9943 18.2171 82.1554 18.901 82.1554 19.7246ZM94.6331 12.1084V24H92.6458L92.302 22.3994H92.1624C91.9117 22.8076 91.593 23.1478 91.2063 23.4199C90.8196 23.6849 90.3899 23.8818 89.9173 24.0107C89.4446 24.1468 88.9469 24.2148 88.4241 24.2148C87.5289 24.2148 86.7626 24.0645 86.1253 23.7637C85.4951 23.4557 85.0117 22.9831 84.6751 22.3457C84.3385 21.7083 84.1702 20.8848 84.1702 19.875V12.1084H86.7054V19.4023C86.7054 20.3262 86.8916 21.0173 87.2639 21.4756C87.6435 21.9339 88.2307 22.1631 89.0257 22.1631C89.7919 22.1631 90.4007 22.0055 90.8518 21.6904C91.303 21.3753 91.6217 20.9098 91.8079 20.2939C92.0013 19.6781 92.0979 18.9225 92.0979 18.0273V12.1084H94.6331ZM100.128 24H97.5932V7.28516H100.128V24ZM107.74 11.8828C109.244 11.8828 110.379 12.2158 111.145 12.8818C111.919 13.5479 112.305 14.5863 112.305 15.9971V24H110.511L110.028 22.3135H109.942C109.605 22.7432 109.258 23.0977 108.9 23.377C108.542 23.6562 108.127 23.8639 107.654 24C107.188 24.1432 106.619 24.2148 105.946 24.2148C105.237 24.2148 104.603 24.0859 104.045 23.8281C103.486 23.5632 103.046 23.1621 102.723 22.625C102.401 22.0879 102.24 21.4076 102.24 20.584C102.24 19.3594 102.695 18.4391 103.604 17.8232C104.521 17.2074 105.903 16.8672 107.751 16.8027L109.813 16.7275V16.1045C109.813 15.2809 109.62 14.6937 109.233 14.3428C108.853 13.9919 108.316 13.8164 107.622 13.8164C107.027 13.8164 106.451 13.9023 105.892 14.0742C105.334 14.2461 104.789 14.4574 104.259 14.708L103.443 12.9248C104.023 12.6169 104.682 12.3662 105.42 12.1729C106.164 11.9795 106.938 11.8828 107.74 11.8828ZM109.802 18.3174L108.266 18.3711C107.006 18.4141 106.121 18.6289 105.613 19.0156C105.104 19.4023 104.85 19.9323 104.85 20.6055C104.85 21.1927 105.026 21.6224 105.377 21.8945C105.727 22.1595 106.189 22.292 106.762 22.292C107.636 22.292 108.359 22.0449 108.932 21.5508C109.512 21.0495 109.802 20.3154 109.802 19.3486V18.3174ZM117.704 12.1084V24H115.179V12.1084H117.704ZM116.458 7.55371C116.844 7.55371 117.177 7.65755 117.457 7.86523C117.743 8.07292 117.886 8.43099 117.886 8.93945C117.886 9.44076 117.743 9.79883 117.457 10.0137C117.177 10.2214 116.844 10.3252 116.458 10.3252C116.057 10.3252 115.717 10.2214 115.437 10.0137C115.165 9.79883 115.029 9.44076 115.029 8.93945C115.029 8.43099 115.165 8.07292 115.437 7.86523C115.717 7.65755 116.057 7.55371 116.458 7.55371ZM134.102 11.8828C135.434 11.8828 136.437 12.2266 137.11 12.9141C137.791 13.6016 138.131 14.7044 138.131 16.2227V24H135.606V16.6738C135.606 15.7715 135.431 15.0911 135.08 14.6328C134.729 14.1745 134.196 13.9453 133.479 13.9453C132.477 13.9453 131.754 14.2676 131.309 14.9121C130.873 15.5495 130.654 16.4769 130.654 17.6943V24H128.13V16.6738C128.13 16.0723 128.051 15.571 127.893 15.1699C127.743 14.7617 127.51 14.4574 127.195 14.2568C126.88 14.0492 126.483 13.9453 126.003 13.9453C125.308 13.9453 124.753 14.1029 124.338 14.418C123.93 14.7331 123.636 15.1986 123.457 15.8145C123.278 16.4232 123.188 17.1715 123.188 18.0596V24H120.664V12.1084H122.63L122.984 13.709H123.124C123.367 13.2936 123.668 12.9535 124.026 12.6885C124.392 12.4163 124.796 12.2158 125.24 12.0869C125.684 11.9508 126.146 11.8828 126.626 11.8828C127.514 11.8828 128.262 12.0404 128.871 12.3555C129.48 12.6634 129.934 13.1361 130.235 13.7734H130.429C130.801 13.1289 131.32 12.6527 131.986 12.3447C132.652 12.0368 133.358 11.8828 134.102 11.8828ZM145.656 11.8828C147.16 11.8828 148.295 12.2158 149.062 12.8818C149.835 13.5479 150.222 14.5863 150.222 15.9971V24H148.428L147.944 22.3135H147.858C147.522 22.7432 147.175 23.0977 146.816 23.377C146.458 23.6562 146.043 23.8639 145.57 24C145.105 24.1432 144.536 24.2148 143.862 24.2148C143.153 24.2148 142.52 24.0859 141.961 23.8281C141.402 23.5632 140.962 23.1621 140.64 22.625C140.317 22.0879 140.156 21.4076 140.156 20.584C140.156 19.3594 140.611 18.4391 141.521 17.8232C142.437 17.2074 143.819 16.8672 145.667 16.8027L147.73 16.7275V16.1045C147.73 15.2809 147.536 14.6937 147.149 14.3428C146.77 13.9919 146.233 13.8164 145.538 13.8164C144.944 13.8164 144.367 13.9023 143.809 14.0742C143.25 14.2461 142.706 14.4574 142.176 14.708L141.359 12.9248C141.94 12.6169 142.598 12.3662 143.336 12.1729C144.081 11.9795 144.854 11.8828 145.656 11.8828ZM147.719 18.3174L146.183 18.3711C144.922 18.4141 144.038 18.6289 143.529 19.0156C143.021 19.4023 142.767 19.9323 142.767 20.6055C142.767 21.1927 142.942 21.6224 143.293 21.8945C143.644 22.1595 144.106 22.292 144.679 22.292C145.552 22.292 146.276 22.0449 146.849 21.5508C147.429 21.0495 147.719 20.3154 147.719 19.3486V18.3174ZM159.294 11.8828C160.633 11.8828 161.675 12.2301 162.42 12.9248C163.172 13.6123 163.548 14.7188 163.548 16.2441V24H161.024V16.7168C161.024 15.793 160.834 15.1019 160.454 14.6436C160.075 14.1781 159.488 13.9453 158.693 13.9453C157.54 13.9453 156.738 14.2998 156.286 15.0088C155.842 15.7178 155.62 16.7454 155.62 18.0918V24H153.096V12.1084H155.062L155.416 13.7197H155.556C155.814 13.3044 156.132 12.9642 156.512 12.6992C156.899 12.4271 157.328 12.223 157.801 12.0869C158.281 11.9508 158.779 11.8828 159.294 11.8828ZM177.181 24H174.592V10.4863H169.995V8.29492H181.768V10.4863H177.181V24ZM185.781 7.28516V11.4854C185.781 11.9222 185.767 12.3483 185.738 12.7637C185.717 13.179 185.691 13.5013 185.663 13.7305H185.802C186.053 13.3151 186.361 12.9749 186.726 12.71C187.092 12.4378 187.5 12.2337 187.951 12.0977C188.409 11.9616 188.896 11.8936 189.412 11.8936C190.321 11.8936 191.095 12.0475 191.732 12.3555C192.37 12.6562 192.856 13.1253 193.193 13.7627C193.537 14.4001 193.709 15.2272 193.709 16.2441V24H191.184V16.7168C191.184 15.793 190.995 15.1019 190.615 14.6436C190.235 14.1781 189.648 13.9453 188.853 13.9453C188.087 13.9453 187.478 14.1064 187.027 14.4287C186.583 14.7438 186.264 15.2129 186.071 15.8359C185.878 16.4518 185.781 17.2038 185.781 18.0918V24H183.257V7.28516H185.781ZM201.32 11.8828C202.38 11.8828 203.29 12.1012 204.049 12.5381C204.808 12.9749 205.391 13.5944 205.8 14.3965C206.208 15.1986 206.412 16.1582 206.412 17.2754V18.6289H198.474C198.502 19.7819 198.81 20.6699 199.397 21.293C199.992 21.916 200.822 22.2275 201.89 22.2275C202.649 22.2275 203.329 22.1559 203.931 22.0127C204.539 21.8623 205.166 21.6439 205.81 21.3574V23.4092C205.216 23.6885 204.611 23.8926 203.995 24.0215C203.379 24.1504 202.641 24.2148 201.782 24.2148C200.615 24.2148 199.587 23.9893 198.699 23.5381C197.818 23.0798 197.127 22.3994 196.626 21.4971C196.132 20.5947 195.885 19.474 195.885 18.1348C195.885 16.8027 196.11 15.6712 196.561 14.7402C197.013 13.8092 197.646 13.1003 198.463 12.6133C199.279 12.1263 200.232 11.8828 201.32 11.8828ZM201.32 13.7842C200.525 13.7842 199.881 14.042 199.387 14.5576C198.9 15.0732 198.613 15.8288 198.527 16.8242H203.941C203.934 16.2298 203.834 15.7035 203.641 15.2451C203.454 14.7868 203.168 14.4287 202.781 14.1709C202.402 13.9131 201.915 13.7842 201.32 13.7842ZM213.261 11.8828C214.765 11.8828 215.9 12.2158 216.666 12.8818C217.439 13.5479 217.826 14.5863 217.826 15.9971V24H216.032L215.549 22.3135H215.463C215.126 22.7432 214.779 23.0977 214.421 23.377C214.063 23.6562 213.648 23.8639 213.175 24C212.709 24.1432 212.14 24.2148 211.467 24.2148C210.758 24.2148 210.124 24.0859 209.565 23.8281C209.007 23.5632 208.566 23.1621 208.244 22.625C207.922 22.0879 207.761 21.4076 207.761 20.584C207.761 19.3594 208.216 18.4391 209.125 17.8232C210.042 17.2074 211.424 16.8672 213.272 16.8027L215.334 16.7275V16.1045C215.334 15.2809 215.141 14.6937 214.754 14.3428C214.374 13.9919 213.837 13.8164 213.143 13.8164C212.548 13.8164 211.972 13.9023 211.413 14.0742C210.855 14.2461 210.31 14.4574 209.78 14.708L208.964 12.9248C209.544 12.6169 210.203 12.3662 210.94 12.1729C211.685 11.9795 212.459 11.8828 213.261 11.8828ZM215.323 18.3174L213.787 18.3711C212.527 18.4141 211.642 18.6289 211.134 19.0156C210.625 19.4023 210.371 19.9323 210.371 20.6055C210.371 21.1927 210.547 21.6224 210.898 21.8945C211.248 22.1595 211.71 22.292 212.283 22.292C213.157 22.292 213.88 22.0449 214.453 21.5508C215.033 21.0495 215.323 20.3154 215.323 19.3486V18.3174ZM225.126 22.1738C225.456 22.1738 225.781 22.1452 226.104 22.0879C226.426 22.0234 226.72 21.9482 226.985 21.8623V23.7744C226.705 23.8962 226.344 24 225.9 24.0859C225.456 24.1719 224.994 24.2148 224.514 24.2148C223.841 24.2148 223.236 24.1038 222.698 23.8818C222.161 23.6527 221.735 23.2624 221.42 22.7109C221.105 22.1595 220.947 21.3968 220.947 20.4229V14.0312H219.325V12.9033L221.066 12.0117L221.893 9.46582H223.483V12.1084H226.888V14.0312H223.483V20.3906C223.483 20.9922 223.633 21.4398 223.934 21.7334C224.235 22.027 224.632 22.1738 225.126 22.1738ZM233.479 11.8828C234.539 11.8828 235.448 12.1012 236.207 12.5381C236.966 12.9749 237.55 13.5944 237.958 14.3965C238.367 15.1986 238.571 16.1582 238.571 17.2754V18.6289H230.632C230.661 19.7819 230.969 20.6699 231.556 21.293C232.15 21.916 232.981 22.2275 234.048 22.2275C234.807 22.2275 235.488 22.1559 236.089 22.0127C236.698 21.8623 237.325 21.6439 237.969 21.3574V23.4092C237.375 23.6885 236.77 23.8926 236.154 24.0215C235.538 24.1504 234.8 24.2148 233.941 24.2148C232.773 24.2148 231.746 23.9893 230.858 23.5381C229.977 23.0798 229.286 22.3994 228.785 21.4971C228.29 20.5947 228.043 19.474 228.043 18.1348C228.043 16.8027 228.269 15.6712 228.72 14.7402C229.171 13.8092 229.805 13.1003 230.621 12.6133C231.438 12.1263 232.39 11.8828 233.479 11.8828ZM233.479 13.7842C232.684 13.7842 232.039 14.042 231.545 14.5576C231.058 15.0732 230.772 15.8288 230.686 16.8242H236.1C236.093 16.2298 235.993 15.7035 235.799 15.2451C235.613 14.7868 235.327 14.4287 234.94 14.1709C234.56 13.9131 234.073 13.7842 233.479 13.7842ZM246.784 11.8828C246.984 11.8828 247.203 11.8936 247.439 11.915C247.675 11.9365 247.879 11.9652 248.051 12.001L247.815 14.3643C247.665 14.3213 247.478 14.2891 247.256 14.2676C247.042 14.2461 246.848 14.2354 246.676 14.2354C246.225 14.2354 245.795 14.3105 245.387 14.4609C244.979 14.6042 244.617 14.8262 244.302 15.127C243.987 15.4206 243.74 15.7894 243.561 16.2334C243.382 16.6774 243.292 17.193 243.292 17.7803V24H240.757V12.1084H242.734L243.078 14.2031H243.196C243.432 13.7806 243.726 13.3939 244.077 13.043C244.428 12.6921 244.829 12.4128 245.28 12.2051C245.738 11.9902 246.239 11.8828 246.784 11.8828ZM249.228 22.668C249.228 22.0807 249.379 21.6689 249.679 21.4326C249.987 21.1891 250.36 21.0674 250.797 21.0674C251.233 21.0674 251.606 21.1891 251.914 21.4326C252.229 21.6689 252.386 22.0807 252.386 22.668C252.386 23.2409 252.229 23.6562 251.914 23.9141C251.606 24.1647 251.233 24.29 250.797 24.29C250.36 24.29 249.987 24.1647 249.679 23.9141C249.379 23.6562 249.228 23.2409 249.228 22.668Z" fill="#F5F5F5"/>
<path d="M153.169 37H152.334V30.5938H150.088V29.8613H155.405V30.5938H153.169V37ZM156.873 31.6484V37H156.062V31.6484H156.873ZM156.477 29.6465C156.611 29.6465 156.725 29.6904 156.819 29.7783C156.917 29.863 156.966 29.9964 156.966 30.1787C156.966 30.3577 156.917 30.4912 156.819 30.5791C156.725 30.667 156.611 30.7109 156.477 30.7109C156.337 30.7109 156.22 30.667 156.126 30.5791C156.035 30.4912 155.989 30.3577 155.989 30.1787C155.989 29.9964 156.035 29.863 156.126 29.7783C156.22 29.6904 156.337 29.6465 156.477 29.6465ZM160.435 37.0977C159.953 37.0977 159.529 36.9984 159.161 36.7998C158.793 36.6012 158.506 36.2985 158.301 35.8916C158.096 35.4847 157.994 34.972 157.994 34.3535C157.994 33.7057 158.101 33.1768 158.316 32.7666C158.534 32.3532 158.834 32.0472 159.214 31.8486C159.595 31.6501 160.028 31.5508 160.513 31.5508C160.78 31.5508 161.037 31.5785 161.285 31.6338C161.535 31.6859 161.74 31.7526 161.9 31.834L161.656 32.5127C161.493 32.4476 161.304 32.389 161.089 32.3369C160.878 32.2848 160.679 32.2588 160.494 32.2588C160.123 32.2588 159.813 32.3385 159.566 32.498C159.322 32.6576 159.138 32.8919 159.014 33.2012C158.894 33.5104 158.834 33.8913 158.834 34.3438C158.834 34.7767 158.892 35.1462 159.009 35.4521C159.13 35.7581 159.307 35.9925 159.542 36.1553C159.779 36.3148 160.075 36.3945 160.43 36.3945C160.713 36.3945 160.969 36.3652 161.197 36.3066C161.425 36.2448 161.631 36.1732 161.817 36.0918V36.8145C161.638 36.9056 161.438 36.9756 161.216 37.0244C160.998 37.0732 160.738 37.0977 160.435 37.0977ZM163.592 29.4023V33.3477C163.592 33.4779 163.587 33.6374 163.578 33.8262C163.568 34.0117 163.56 34.1761 163.553 34.3193H163.587C163.656 34.2347 163.755 34.1094 163.885 33.9434C164.019 33.7773 164.131 33.6439 164.222 33.543L165.999 31.6484H166.952L164.798 33.9336L167.108 37H166.131L164.242 34.4658L163.592 35.0615V37H162.787V29.4023H163.592ZM169.801 31.5508C170.257 31.5508 170.647 31.6517 170.973 31.8535C171.298 32.0553 171.547 32.3385 171.72 32.7031C171.892 33.0645 171.979 33.4876 171.979 33.9727V34.4756H168.282C168.292 35.1038 168.448 35.5824 168.751 35.9111C169.054 36.2399 169.48 36.4043 170.03 36.4043C170.369 36.4043 170.668 36.3734 170.929 36.3115C171.189 36.2497 171.46 36.1585 171.739 36.0381V36.751C171.469 36.8714 171.201 36.9593 170.934 37.0146C170.67 37.07 170.358 37.0977 169.996 37.0977C169.482 37.0977 169.033 36.9935 168.649 36.7852C168.268 36.5736 167.972 36.2643 167.76 35.8574C167.548 35.4505 167.443 34.9525 167.443 34.3633C167.443 33.7871 167.539 33.2891 167.731 32.8691C167.926 32.446 168.199 32.1204 168.551 31.8926C168.906 31.6647 169.322 31.5508 169.801 31.5508ZM169.791 32.2148C169.358 32.2148 169.013 32.3564 168.756 32.6396C168.499 32.9229 168.346 33.3184 168.297 33.8262H171.129C171.126 33.5072 171.075 33.2272 170.978 32.9863C170.883 32.7422 170.738 32.5534 170.543 32.4199C170.348 32.2832 170.097 32.2148 169.791 32.2148ZM174.784 36.4336C174.918 36.4336 175.054 36.4222 175.194 36.3994C175.334 36.3766 175.448 36.349 175.536 36.3164V36.9463C175.442 36.9886 175.31 37.0244 175.141 37.0537C174.975 37.083 174.812 37.0977 174.652 37.0977C174.369 37.0977 174.112 37.0488 173.881 36.9512C173.65 36.8503 173.464 36.681 173.324 36.4434C173.188 36.2057 173.119 35.877 173.119 35.457V32.2832H172.357V31.8877L173.124 31.5703L173.446 30.4082H173.935V31.6484H175.502V32.2832H173.935V35.4326C173.935 35.7679 174.011 36.0186 174.164 36.1846C174.32 36.3506 174.527 36.4336 174.784 36.4336ZM178.74 29.8613H180.761C181.653 29.8613 182.324 29.9948 182.773 30.2617C183.222 30.5286 183.447 30.9827 183.447 31.624C183.447 31.9007 183.393 32.1497 183.286 32.3711C183.182 32.5892 183.029 32.7699 182.827 32.9131C182.625 33.0563 182.376 33.1556 182.08 33.2109V33.2598C182.392 33.3086 182.669 33.3981 182.91 33.5283C183.151 33.6585 183.339 33.8408 183.476 34.0752C183.613 34.3096 183.681 34.6074 183.681 34.9688C183.681 35.4082 183.579 35.7793 183.374 36.082C183.172 36.3848 182.885 36.6143 182.514 36.7705C182.143 36.9235 181.704 37 181.196 37H178.74V29.8613ZM179.57 32.9229H180.937C181.559 32.9229 181.989 32.8203 182.226 32.6152C182.467 32.4102 182.587 32.1107 182.587 31.7168C182.587 31.3099 182.444 31.0169 182.158 30.8379C181.875 30.6589 181.422 30.5693 180.8 30.5693H179.57V32.9229ZM179.57 33.6211V36.292H181.054C181.689 36.292 182.138 36.1683 182.402 35.9209C182.666 35.6702 182.797 35.3333 182.797 34.9102C182.797 34.64 182.737 34.4089 182.617 34.2168C182.5 34.0247 182.308 33.8783 182.041 33.7773C181.777 33.6732 181.424 33.6211 180.981 33.6211H179.57ZM189.397 34.3145C189.397 34.7539 189.34 35.1462 189.226 35.4912C189.112 35.8363 188.948 36.1276 188.733 36.3652C188.518 36.6029 188.258 36.7852 187.952 36.9121C187.649 37.0358 187.305 37.0977 186.921 37.0977C186.563 37.0977 186.234 37.0358 185.935 36.9121C185.639 36.7852 185.382 36.6029 185.163 36.3652C184.949 36.1276 184.781 35.8363 184.661 35.4912C184.543 35.1462 184.485 34.7539 184.485 34.3145C184.485 33.7285 184.584 33.2305 184.783 32.8203C184.981 32.4069 185.264 32.0928 185.632 31.8779C186.003 31.6598 186.444 31.5508 186.955 31.5508C187.444 31.5508 187.87 31.6598 188.235 31.8779C188.603 32.096 188.887 32.4118 189.089 32.8252C189.294 33.2354 189.397 33.7318 189.397 34.3145ZM185.325 34.3145C185.325 34.7441 185.382 35.1169 185.496 35.4326C185.609 35.7484 185.785 35.9925 186.023 36.165C186.26 36.3376 186.566 36.4238 186.941 36.4238C187.312 36.4238 187.616 36.3376 187.854 36.165C188.095 35.9925 188.272 35.7484 188.386 35.4326C188.5 35.1169 188.557 34.7441 188.557 34.3145C188.557 33.888 188.5 33.5202 188.386 33.2109C188.272 32.8984 188.096 32.6576 187.859 32.4883C187.621 32.319 187.314 32.2344 186.936 32.2344C186.379 32.2344 185.971 32.4183 185.71 32.7861C185.453 33.154 185.325 33.6634 185.325 34.3145ZM195.112 34.3145C195.112 34.7539 195.056 35.1462 194.942 35.4912C194.828 35.8363 194.663 36.1276 194.448 36.3652C194.234 36.6029 193.973 36.7852 193.667 36.9121C193.364 37.0358 193.021 37.0977 192.637 37.0977C192.279 37.0977 191.95 37.0358 191.651 36.9121C191.354 36.7852 191.097 36.6029 190.879 36.3652C190.664 36.1276 190.497 35.8363 190.376 35.4912C190.259 35.1462 190.2 34.7539 190.2 34.3145C190.2 33.7285 190.3 33.2305 190.498 32.8203C190.697 32.4069 190.98 32.0928 191.348 31.8779C191.719 31.6598 192.16 31.5508 192.671 31.5508C193.159 31.5508 193.586 31.6598 193.95 31.8779C194.318 32.096 194.603 32.4118 194.805 32.8252C195.01 33.2354 195.112 33.7318 195.112 34.3145ZM191.04 34.3145C191.04 34.7441 191.097 35.1169 191.211 35.4326C191.325 35.7484 191.501 35.9925 191.738 36.165C191.976 36.3376 192.282 36.4238 192.656 36.4238C193.028 36.4238 193.332 36.3376 193.57 36.165C193.81 35.9925 193.988 35.7484 194.102 35.4326C194.216 35.1169 194.273 34.7441 194.273 34.3145C194.273 33.888 194.216 33.5202 194.102 33.2109C193.988 32.8984 193.812 32.6576 193.574 32.4883C193.337 32.319 193.029 32.2344 192.652 32.2344C192.095 32.2344 191.686 32.4183 191.426 32.7861C191.169 33.154 191.04 33.6634 191.04 34.3145ZM197.02 29.4023V33.3477C197.02 33.4779 197.015 33.6374 197.005 33.8262C196.995 34.0117 196.987 34.1761 196.98 34.3193H197.015C197.083 34.2347 197.182 34.1094 197.312 33.9434C197.446 33.7773 197.558 33.6439 197.649 33.543L199.427 31.6484H200.379L198.226 33.9336L200.535 37H199.559L197.669 34.4658L197.02 35.0615V37H196.214V29.4023H197.02ZM201.978 31.6484V37H201.168V31.6484H201.978ZM201.583 29.6465C201.716 29.6465 201.83 29.6904 201.925 29.7783C202.022 29.863 202.071 29.9964 202.071 30.1787C202.071 30.3577 202.022 30.4912 201.925 30.5791C201.83 30.667 201.716 30.7109 201.583 30.7109C201.443 30.7109 201.326 30.667 201.231 30.5791C201.14 30.4912 201.095 30.3577 201.095 30.1787C201.095 29.9964 201.14 29.863 201.231 29.7783C201.326 29.6904 201.443 29.6465 201.583 29.6465ZM205.931 31.5508C206.566 31.5508 207.046 31.707 207.372 32.0195C207.697 32.3288 207.86 32.8268 207.86 33.5137V37H207.059V33.5674C207.059 33.1214 206.957 32.7878 206.752 32.5664C206.55 32.3451 206.239 32.2344 205.819 32.2344C205.226 32.2344 204.81 32.402 204.569 32.7373C204.328 33.0726 204.208 33.5592 204.208 34.1973V37H203.397V31.6484H204.051L204.173 32.4199H204.217C204.331 32.2311 204.476 32.0732 204.652 31.9463C204.828 31.8161 205.025 31.7184 205.243 31.6533C205.461 31.585 205.69 31.5508 205.931 31.5508ZM210.724 39.4023C210.021 39.4023 209.479 39.2705 209.098 39.0068C208.717 38.7464 208.527 38.3802 208.527 37.9082C208.527 37.5729 208.633 37.2865 208.844 37.0488C209.059 36.8112 209.355 36.6533 209.733 36.5752C209.593 36.5101 209.472 36.4124 209.371 36.2822C209.274 36.152 209.225 36.0023 209.225 35.833C209.225 35.6377 209.279 35.4668 209.386 35.3203C209.497 35.1706 209.664 35.0273 209.889 34.8906C209.609 34.7767 209.381 34.5846 209.205 34.3145C209.033 34.041 208.947 33.7236 208.947 33.3623C208.947 32.9782 209.026 32.651 209.186 32.3809C209.345 32.1074 209.577 31.8991 209.879 31.7559C210.182 31.6126 210.548 31.541 210.978 31.541C211.072 31.541 211.167 31.5459 211.261 31.5557C211.359 31.5622 211.452 31.5736 211.539 31.5898C211.627 31.6029 211.704 31.6191 211.769 31.6387H213.605V32.1611L212.619 32.2832C212.716 32.4102 212.798 32.5632 212.863 32.7422C212.928 32.9212 212.96 33.1198 212.96 33.3379C212.96 33.8717 212.78 34.2965 212.418 34.6123C212.057 34.9248 211.561 35.0811 210.929 35.0811C210.779 35.0811 210.626 35.068 210.47 35.042C210.311 35.1299 210.189 35.2275 210.104 35.335C210.023 35.4424 209.982 35.5661 209.982 35.7061C209.982 35.8102 210.013 35.8932 210.075 35.9551C210.14 36.0169 210.232 36.0625 210.353 36.0918C210.473 36.1178 210.618 36.1309 210.787 36.1309H211.73C212.313 36.1309 212.759 36.2529 213.068 36.4971C213.38 36.7412 213.537 37.0977 213.537 37.5664C213.537 38.1589 213.296 38.613 212.814 38.9287C212.332 39.2445 211.635 39.4023 210.724 39.4023ZM210.748 38.7676C211.191 38.7676 211.557 38.722 211.847 38.6309C212.14 38.543 212.358 38.4144 212.501 38.2451C212.648 38.0791 212.721 37.8805 212.721 37.6494C212.721 37.4346 212.672 37.2718 212.575 37.1611C212.477 37.0537 212.334 36.9821 212.145 36.9463C211.956 36.9072 211.725 36.8877 211.452 36.8877H210.524C210.283 36.8877 210.073 36.9251 209.894 37C209.715 37.0749 209.577 37.1855 209.479 37.332C209.385 37.4785 209.337 37.6608 209.337 37.8789C209.337 38.1686 209.459 38.3883 209.704 38.5381C209.948 38.6911 210.296 38.7676 210.748 38.7676ZM210.958 34.4902C211.346 34.4902 211.637 34.3926 211.832 34.1973C212.028 34.002 212.125 33.7171 212.125 33.3428C212.125 32.9424 212.026 32.6429 211.828 32.4443C211.629 32.2425 211.336 32.1416 210.949 32.1416C210.578 32.1416 210.291 32.2458 210.089 32.4541C209.891 32.6592 209.791 32.9603 209.791 33.3574C209.791 33.722 209.892 34.002 210.094 34.1973C210.296 34.3926 210.584 34.4902 210.958 34.4902ZM224.89 29.8613L222.98 37H222.146L220.729 32.1953C220.687 32.0586 220.646 31.9219 220.607 31.7852C220.572 31.6452 220.537 31.5133 220.505 31.3896C220.472 31.2627 220.445 31.152 220.422 31.0576C220.402 30.96 220.388 30.8867 220.378 30.8379C220.371 30.8867 220.358 30.9583 220.339 31.0527C220.323 31.1471 220.3 31.2562 220.271 31.3799C220.244 31.5036 220.212 31.6354 220.173 31.7754C220.137 31.9154 220.098 32.057 220.056 32.2002L218.679 37H217.844L215.949 29.8613H216.813L217.961 34.3389C218 34.4886 218.036 34.6367 218.068 34.7832C218.104 34.9264 218.135 35.0664 218.161 35.2031C218.19 35.3398 218.216 35.4733 218.239 35.6035C218.262 35.7337 218.283 35.8607 218.303 35.9844C218.319 35.8574 218.34 35.7256 218.366 35.5889C218.392 35.4489 218.42 35.3073 218.449 35.1641C218.482 35.0208 218.516 34.876 218.552 34.7295C218.591 34.583 218.632 34.4365 218.674 34.29L219.958 29.8613H220.812L222.15 34.3242C222.196 34.4772 222.238 34.6286 222.277 34.7783C222.316 34.9281 222.351 35.0745 222.38 35.2178C222.412 35.3577 222.44 35.4928 222.463 35.623C222.489 35.75 222.512 35.8704 222.531 35.9844C222.554 35.8249 222.582 35.6572 222.614 35.4814C222.647 35.3057 222.684 35.1217 222.727 34.9297C222.772 34.7376 222.821 34.5391 222.873 34.334L224.021 29.8613H224.89ZM227.656 31.5508C228.112 31.5508 228.502 31.6517 228.828 31.8535C229.153 32.0553 229.402 32.3385 229.575 32.7031C229.748 33.0645 229.834 33.4876 229.834 33.9727V34.4756H226.137C226.147 35.1038 226.304 35.5824 226.606 35.9111C226.909 36.2399 227.335 36.4043 227.886 36.4043C228.224 36.4043 228.524 36.3734 228.784 36.3115C229.044 36.2497 229.315 36.1585 229.595 36.0381V36.751C229.324 36.8714 229.056 36.9593 228.789 37.0146C228.525 37.07 228.213 37.0977 227.851 37.0977C227.337 37.0977 226.888 36.9935 226.504 36.7852C226.123 36.5736 225.827 36.2643 225.615 35.8574C225.403 35.4505 225.298 34.9525 225.298 34.3633C225.298 33.7871 225.394 33.2891 225.586 32.8691C225.781 32.446 226.054 32.1204 226.406 31.8926C226.761 31.6647 227.178 31.5508 227.656 31.5508ZM227.646 32.2148C227.213 32.2148 226.868 32.3564 226.611 32.6396C226.354 32.9229 226.201 33.3184 226.152 33.8262H228.984C228.981 33.5072 228.93 33.2272 228.833 32.9863C228.738 32.7422 228.594 32.5534 228.398 32.4199C228.203 32.2832 227.952 32.2148 227.646 32.2148ZM231.721 29.4023V31.3018C231.721 31.5199 231.715 31.7314 231.702 31.9365C231.692 32.1416 231.684 32.3011 231.677 32.415H231.721C231.868 32.1742 232.079 31.9707 232.356 31.8047C232.633 31.6387 232.986 31.5557 233.416 31.5557C234.086 31.5557 234.62 31.7884 235.017 32.2539C235.418 32.7161 235.618 33.4046 235.618 34.3193C235.618 34.9215 235.527 35.4294 235.344 35.8428C235.162 36.2562 234.905 36.5687 234.573 36.7803C234.241 36.9919 233.849 37.0977 233.396 37.0977C232.973 37.0977 232.625 37.0195 232.351 36.8633C232.081 36.7038 231.873 36.5101 231.726 36.2822H231.663L231.497 37H230.911V29.4023H231.721ZM233.284 32.2344C232.896 32.2344 232.589 32.3109 232.361 32.4639C232.133 32.6136 231.969 32.8415 231.868 33.1475C231.77 33.4502 231.721 33.8343 231.721 34.2998V34.3438C231.721 35.0176 231.834 35.5335 232.058 35.8916C232.283 36.2464 232.691 36.4238 233.284 36.4238C233.782 36.4238 234.155 36.2415 234.402 35.877C234.653 35.5124 234.778 34.9915 234.778 34.3145C234.778 33.6243 234.654 33.1051 234.407 32.7568C234.163 32.4085 233.788 32.2344 233.284 32.2344ZM240.196 35.5352C240.196 35.877 240.109 36.165 239.937 36.3994C239.768 36.6305 239.524 36.8047 239.204 36.9219C238.889 37.0391 238.511 37.0977 238.072 37.0977C237.697 37.0977 237.373 37.0684 237.1 37.0098C236.827 36.9512 236.587 36.8682 236.382 36.7607V36.0137C236.6 36.1211 236.861 36.2188 237.163 36.3066C237.466 36.3945 237.775 36.4385 238.091 36.4385C238.553 36.4385 238.889 36.3636 239.097 36.2139C239.305 36.0641 239.41 35.8607 239.41 35.6035C239.41 35.457 239.367 35.3285 239.283 35.2178C239.201 35.1038 239.063 34.9948 238.868 34.8906C238.672 34.7832 238.402 34.666 238.057 34.5391C237.715 34.4089 237.419 34.2803 237.168 34.1533C236.921 34.0231 236.729 33.8652 236.592 33.6797C236.459 33.4941 236.392 33.2533 236.392 32.957C236.392 32.5046 236.574 32.1579 236.939 31.917C237.307 31.6729 237.788 31.5508 238.384 31.5508C238.706 31.5508 239.008 31.5833 239.287 31.6484C239.571 31.7103 239.834 31.7949 240.079 31.9023L239.805 32.5518C239.584 32.4574 239.348 32.3776 239.097 32.3125C238.846 32.2474 238.591 32.2148 238.33 32.2148C237.956 32.2148 237.668 32.2767 237.466 32.4004C237.268 32.5241 237.168 32.6934 237.168 32.9082C237.168 33.0742 237.214 33.2109 237.305 33.3184C237.399 33.4258 237.549 33.5267 237.754 33.6211C237.959 33.7155 238.23 33.8262 238.565 33.9531C238.9 34.0768 239.19 34.2054 239.434 34.3389C239.678 34.4691 239.865 34.6286 239.996 34.8174C240.129 35.0029 240.196 35.2422 240.196 35.5352ZM242.01 31.6484V37H241.199V31.6484H242.01ZM241.614 29.6465C241.748 29.6465 241.862 29.6904 241.956 29.7783C242.054 29.863 242.103 29.9964 242.103 30.1787C242.103 30.3577 242.054 30.4912 241.956 30.5791C241.862 30.667 241.748 30.7109 241.614 30.7109C241.474 30.7109 241.357 30.667 241.263 30.5791C241.172 30.4912 241.126 30.3577 241.126 30.1787C241.126 29.9964 241.172 29.863 241.263 29.7783C241.357 29.6904 241.474 29.6465 241.614 29.6465ZM245.157 36.4336C245.291 36.4336 245.427 36.4222 245.567 36.3994C245.707 36.3766 245.821 36.349 245.909 36.3164V36.9463C245.815 36.9886 245.683 37.0244 245.514 37.0537C245.348 37.083 245.185 37.0977 245.025 37.0977C244.742 37.0977 244.485 37.0488 244.254 36.9512C244.023 36.8503 243.837 36.681 243.697 36.4434C243.561 36.2057 243.492 35.877 243.492 35.457V32.2832H242.73V31.8877L243.497 31.5703L243.819 30.4082H244.308V31.6484H245.875V32.2832H244.308V35.4326C244.308 35.7679 244.384 36.0186 244.537 36.1846C244.693 36.3506 244.9 36.4336 245.157 36.4336ZM248.754 31.5508C249.209 31.5508 249.6 31.6517 249.926 31.8535C250.251 32.0553 250.5 32.3385 250.673 32.7031C250.845 33.0645 250.931 33.4876 250.931 33.9727V34.4756H247.235C247.245 35.1038 247.401 35.5824 247.704 35.9111C248.007 36.2399 248.433 36.4043 248.983 36.4043C249.322 36.4043 249.621 36.3734 249.882 36.3115C250.142 36.2497 250.412 36.1585 250.692 36.0381V36.751C250.422 36.8714 250.153 36.9593 249.887 37.0146C249.623 37.07 249.31 37.0977 248.949 37.0977C248.435 37.0977 247.985 36.9935 247.601 36.7852C247.221 36.5736 246.924 36.2643 246.713 35.8574C246.501 35.4505 246.395 34.9525 246.395 34.3633C246.395 33.7871 246.491 33.2891 246.683 32.8691C246.879 32.446 247.152 32.1204 247.504 31.8926C247.859 31.6647 248.275 31.5508 248.754 31.5508ZM248.744 32.2148C248.311 32.2148 247.966 32.3564 247.709 32.6396C247.452 32.9229 247.299 33.3184 247.25 33.8262H250.082C250.079 33.5072 250.028 33.2272 249.93 32.9863C249.836 32.7422 249.691 32.5534 249.496 32.4199C249.301 32.2832 249.05 32.2148 248.744 32.2148ZM251.886 36.4922C251.886 36.2643 251.942 36.1032 252.052 36.0088C252.163 35.9111 252.298 35.8623 252.458 35.8623C252.624 35.8623 252.764 35.9111 252.878 36.0088C252.991 36.1032 253.048 36.2643 253.048 36.4922C253.048 36.7168 252.991 36.8812 252.878 36.9854C252.764 37.0863 252.624 37.1367 252.458 37.1367C252.298 37.1367 252.163 37.0863 252.052 36.9854C251.942 36.8812 251.886 36.7168 251.886 36.4922Z" fill="#B6B6B6"/>
</svg>
