<svg width="404" height="64" viewBox="0 0 404 64" fill="none" xmlns="http://www.w3.org/2000/svg">
<path d="M18.7646 38L16.3208 31.0615H6.76758L4.32373 38H0L9.29688 12.9121H13.8428L23.1226 38H18.7646ZM15.2612 27.541L12.8857 20.7051C12.7946 20.4089 12.6636 19.993 12.4927 19.4575C12.3218 18.9106 12.1509 18.3581 11.98 17.7998C11.8091 17.2301 11.6667 16.7516 11.5527 16.3643C11.4388 16.8314 11.2964 17.3555 11.1255 17.9365C10.966 18.5062 10.8065 19.0417 10.647 19.543C10.4989 20.0443 10.3849 20.4316 10.3052 20.7051L7.9126 27.541H15.2612ZM28.9769 19.0815V38H24.9607V19.0815H28.9769ZM26.9944 11.8354C27.6097 11.8354 28.1395 12.0007 28.5838 12.3311C29.0395 12.6615 29.2674 13.2311 29.2674 14.04C29.2674 14.8376 29.0395 15.4072 28.5838 15.749C28.1395 16.0794 27.6097 16.2446 26.9944 16.2446C26.3564 16.2446 25.8152 16.0794 25.3709 15.749C24.938 15.4072 24.7215 14.8376 24.7215 14.04C24.7215 13.2311 24.938 12.6615 25.3709 12.3311C25.8152 12.0007 26.3564 11.8354 26.9944 11.8354ZM46.401 32.5996C46.401 33.8415 46.0991 34.8896 45.4952 35.7441C44.8914 36.5986 44.0084 37.248 42.8463 37.6924C41.6956 38.1253 40.2828 38.3418 38.608 38.3418C37.2864 38.3418 36.1471 38.245 35.19 38.0513C34.2444 37.869 33.35 37.5841 32.5069 37.1968V33.7275C33.407 34.1491 34.4153 34.5137 35.5318 34.8213C36.6598 35.1289 37.725 35.2827 38.7276 35.2827C40.0493 35.2827 41.0006 35.0776 41.5816 34.6675C42.1627 34.2459 42.4532 33.6877 42.4532 32.9927C42.4532 32.5825 42.3336 32.2179 42.0943 31.8989C41.8665 31.5685 41.4335 31.2324 40.7955 30.8906C40.1689 30.5374 39.246 30.1159 38.027 29.626C36.8307 29.1475 35.8224 28.6689 35.0021 28.1904C34.1817 27.7119 33.5608 27.1366 33.1393 26.4644C32.7177 25.7808 32.5069 24.9092 32.5069 23.8496C32.5069 22.1748 33.1677 20.9045 34.4894 20.0386C35.8224 19.1613 37.5826 18.7227 39.7701 18.7227C40.9322 18.7227 42.026 18.8423 43.0514 19.0815C44.0882 19.3094 45.1021 19.6455 46.0934 20.0898L44.8287 23.1147C43.9742 22.7388 43.114 22.4312 42.2481 22.1919C41.3937 21.9412 40.5221 21.8159 39.6334 21.8159C38.5966 21.8159 37.8048 21.9754 37.2579 22.2944C36.7224 22.6134 36.4547 23.0692 36.4547 23.6616C36.4547 24.106 36.5857 24.4819 36.8478 24.7896C37.1098 25.0972 37.5598 25.4048 38.1979 25.7124C38.8473 26.02 39.7473 26.4017 40.898 26.8574C42.026 27.2904 43.0001 27.7461 43.8204 28.2246C44.6521 28.6917 45.2901 29.2671 45.7345 29.9507C46.1788 30.6343 46.401 31.5173 46.401 32.5996ZM46.8378 19.0815H51.2128L55.0922 29.8823C55.2631 30.3722 55.4169 30.8564 55.5536 31.335C55.7017 31.8021 55.827 32.2635 55.9296 32.7192C56.0435 33.175 56.1347 33.6307 56.203 34.0864H56.3056C56.4195 33.494 56.579 32.8332 56.7841 32.104C57.0006 31.3634 57.2398 30.6229 57.5019 29.8823L61.2274 19.0815H65.5512L57.4335 40.5977C56.9664 41.8281 56.391 42.8763 55.7074 43.7422C55.0352 44.6195 54.2377 45.2803 53.3148 45.7246C52.392 46.1803 51.3381 46.4082 50.1532 46.4082C49.5836 46.4082 49.088 46.374 48.6664 46.3057C48.2449 46.2487 47.886 46.186 47.5897 46.1177V42.9048C47.829 42.9618 48.1309 43.013 48.4955 43.0586C48.8601 43.1042 49.2361 43.127 49.6234 43.127C50.3412 43.127 50.9621 42.9845 51.4862 42.6997C52.0103 42.4149 52.4547 42.0104 52.8192 41.4863C53.1838 40.9736 53.4857 40.3869 53.725 39.7261L54.3915 37.9487L46.8378 19.0815ZM74.7893 18.7227C77.1818 18.7227 78.9877 19.2524 80.2067 20.312C81.4372 21.3716 82.0524 23.0236 82.0524 25.2681V38H79.1984L78.4294 35.3169H78.2927C77.7572 36.0005 77.2046 36.5645 76.635 37.0088C76.0653 37.4531 75.4045 37.7835 74.6525 38C73.912 38.2279 73.0062 38.3418 71.9353 38.3418C70.8073 38.3418 69.799 38.1367 68.9104 37.7266C68.0217 37.305 67.321 36.667 66.8083 35.8125C66.2956 34.958 66.0393 33.8757 66.0393 32.5654C66.0393 30.6172 66.7627 29.1532 68.2097 28.1733C69.668 27.1935 71.8669 26.6523 74.8064 26.5498L78.0876 26.4302V25.439C78.0876 24.1287 77.78 23.1945 77.1647 22.6362C76.5609 22.078 75.7064 21.7988 74.6013 21.7988C73.6556 21.7988 72.7385 21.9355 71.8498 22.209C70.9611 22.4824 70.0953 22.8185 69.2522 23.2173L67.9533 20.3804C68.8762 19.8905 69.9244 19.4917 71.0979 19.1841C72.2828 18.8765 73.5132 18.7227 74.7893 18.7227ZM78.0705 28.9595L75.6267 29.0449C73.6215 29.1133 72.2144 29.4551 71.4055 30.0703C70.5966 30.6855 70.1921 31.5286 70.1921 32.5996C70.1921 33.5339 70.4712 34.2174 71.0295 34.6504C71.5878 35.0719 72.3226 35.2827 73.2341 35.2827C74.6241 35.2827 75.7748 34.8896 76.6862 34.1035C77.6091 33.306 78.0705 32.1382 78.0705 30.6001V28.9595ZM90.6411 11.4082V18.0903C90.6411 18.7853 90.6183 19.4632 90.5728 20.124C90.5386 20.7848 90.4987 21.2975 90.4531 21.6621H90.6753C91.0741 21.0013 91.564 20.4601 92.145 20.0386C92.7261 19.6056 93.3755 19.2809 94.0933 19.0645C94.8224 18.848 95.5972 18.7397 96.4175 18.7397C97.8644 18.7397 99.0949 18.9847 100.109 19.4746C101.123 19.9531 101.898 20.6994 102.433 21.7134C102.98 22.7274 103.253 24.0433 103.253 25.6611V38H99.2373V26.4131C99.2373 24.9434 98.9354 23.8439 98.3315 23.1147C97.7277 22.3742 96.7935 22.0039 95.5288 22.0039C94.3097 22.0039 93.3413 22.2603 92.6235 22.7729C91.9172 23.2743 91.4102 24.0205 91.1025 25.0117C90.7949 25.9915 90.6411 27.1878 90.6411 28.6006V38H86.625V11.4082H90.6411ZM130.702 31.1982C130.702 32.6794 130.337 33.9554 129.608 35.0264C128.89 36.0973 127.853 36.9176 126.498 37.4873C125.153 38.057 123.547 38.3418 121.678 38.3418C120.767 38.3418 119.895 38.2905 119.064 38.188C118.232 38.0854 117.446 37.9373 116.705 37.7437C115.976 37.5386 115.31 37.2936 114.706 37.0088V33.1465C115.72 33.5908 116.853 33.9953 118.107 34.3599C119.36 34.7131 120.636 34.8896 121.935 34.8896C122.994 34.8896 123.872 34.7529 124.567 34.4795C125.273 34.1947 125.797 33.7959 126.139 33.2832C126.481 32.7591 126.651 32.1496 126.651 31.4546C126.651 30.714 126.452 30.0874 126.053 29.5747C125.655 29.062 125.051 28.5949 124.242 28.1733C123.444 27.7404 122.442 27.279 121.234 26.7891C120.414 26.4587 119.628 26.0827 118.876 25.6611C118.135 25.2396 117.474 24.744 116.893 24.1743C116.312 23.6047 115.851 22.9325 115.509 22.1577C115.178 21.3716 115.013 20.4487 115.013 19.3892C115.013 17.9764 115.349 16.7687 116.022 15.7661C116.705 14.7635 117.662 13.9945 118.893 13.459C120.135 12.9235 121.581 12.6558 123.233 12.6558C124.544 12.6558 125.774 12.7925 126.925 13.0659C128.087 13.3394 129.226 13.7267 130.343 14.228L129.044 17.5264C128.019 17.1048 127.022 16.7687 126.053 16.5181C125.096 16.2674 124.116 16.1421 123.114 16.1421C122.248 16.1421 121.513 16.2731 120.909 16.5352C120.305 16.7972 119.844 17.1675 119.525 17.646C119.217 18.1131 119.064 18.6714 119.064 19.3208C119.064 20.05 119.24 20.6652 119.593 21.1665C119.958 21.6564 120.516 22.1064 121.268 22.5166C122.032 22.9268 123.011 23.3825 124.208 23.8838C125.586 24.4535 126.754 25.0516 127.711 25.6782C128.679 26.3049 129.42 27.0568 129.933 27.9341C130.445 28.8 130.702 29.888 130.702 31.1982ZM150.553 19.0815V38H147.391L146.844 35.4536H146.622C146.223 36.103 145.716 36.6442 145.101 37.0771C144.486 37.4987 143.802 37.812 143.05 38.0171C142.298 38.2336 141.506 38.3418 140.675 38.3418C139.251 38.3418 138.031 38.1025 137.017 37.624C136.015 37.1341 135.246 36.3822 134.71 35.3682C134.175 34.3542 133.907 33.0439 133.907 31.4375V19.0815H137.94V30.6855C137.94 32.1553 138.237 33.2547 138.829 33.9839C139.433 34.7131 140.367 35.0776 141.632 35.0776C142.851 35.0776 143.819 34.827 144.537 34.3257C145.255 33.8244 145.762 33.0838 146.058 32.104C146.366 31.1242 146.519 29.9222 146.519 28.498V19.0815H150.553ZM159.295 38H155.262V11.4082H159.295V38ZM171.404 18.7227C173.797 18.7227 175.603 19.2524 176.822 20.312C178.052 21.3716 178.667 23.0236 178.667 25.2681V38H175.813L175.044 35.3169H174.908C174.372 36.0005 173.82 36.5645 173.25 37.0088C172.68 37.4531 172.02 37.7835 171.268 38C170.527 38.2279 169.621 38.3418 168.55 38.3418C167.422 38.3418 166.414 38.1367 165.525 37.7266C164.637 37.305 163.936 36.667 163.423 35.8125C162.911 34.958 162.654 33.8757 162.654 32.5654C162.654 30.6172 163.378 29.1532 164.825 28.1733C166.283 27.1935 168.482 26.6523 171.421 26.5498L174.703 26.4302V25.439C174.703 24.1287 174.395 23.1945 173.78 22.6362C173.176 22.078 172.321 21.7988 171.216 21.7988C170.271 21.7988 169.354 21.9355 168.465 22.209C167.576 22.4824 166.71 22.8185 165.867 23.2173L164.568 20.3804C165.491 19.8905 166.539 19.4917 167.713 19.1841C168.898 18.8765 170.128 18.7227 171.404 18.7227ZM174.686 28.9595L172.242 29.0449C170.236 29.1133 168.829 29.4551 168.021 30.0703C167.212 30.6855 166.807 31.5286 166.807 32.5996C166.807 33.5339 167.086 34.2174 167.645 34.6504C168.203 35.0719 168.938 35.2827 169.849 35.2827C171.239 35.2827 172.39 34.8896 173.301 34.1035C174.224 33.306 174.686 32.1382 174.686 30.6001V28.9595ZM187.256 19.0815V38H183.24V19.0815H187.256ZM185.274 11.8354C185.889 11.8354 186.419 12.0007 186.863 12.3311C187.319 12.6615 187.547 13.2311 187.547 14.04C187.547 14.8376 187.319 15.4072 186.863 15.749C186.419 16.0794 185.889 16.2446 185.274 16.2446C184.636 16.2446 184.095 16.0794 183.65 15.749C183.217 15.4072 183.001 14.8376 183.001 14.04C183.001 13.2311 183.217 12.6615 183.65 12.3311C184.095 12.0007 184.636 11.8354 185.274 11.8354ZM213.345 18.7227C215.464 18.7227 217.059 19.2695 218.13 20.3633C219.212 21.457 219.754 23.2116 219.754 25.627V38H215.737V26.3447C215.737 24.9092 215.458 23.8268 214.9 23.0977C214.342 22.3685 213.493 22.0039 212.354 22.0039C210.759 22.0039 209.608 22.5166 208.901 23.542C208.206 24.556 207.859 26.0314 207.859 27.9683V38H203.843V26.3447C203.843 25.3877 203.718 24.5902 203.467 23.9521C203.228 23.3027 202.857 22.8185 202.356 22.4995C201.855 22.1691 201.222 22.0039 200.459 22.0039C199.354 22.0039 198.471 22.2546 197.81 22.7559C197.161 23.2572 196.694 23.9977 196.409 24.9775C196.124 25.946 195.982 27.1366 195.982 28.5493V38H191.965V19.0815H195.093L195.657 21.6279H195.879C196.266 20.9671 196.745 20.4259 197.315 20.0044C197.896 19.5715 198.539 19.2524 199.246 19.0474C199.952 18.8309 200.687 18.7227 201.45 18.7227C202.863 18.7227 204.054 18.9733 205.022 19.4746C205.99 19.9645 206.714 20.7165 207.192 21.7305H207.5C208.093 20.7051 208.919 19.9474 209.978 19.4575C211.038 18.9676 212.16 18.7227 213.345 18.7227ZM231.726 18.7227C234.119 18.7227 235.924 19.2524 237.143 20.312C238.374 21.3716 238.989 23.0236 238.989 25.2681V38H236.135L235.366 35.3169H235.229C234.694 36.0005 234.141 36.5645 233.572 37.0088C233.002 37.4531 232.341 37.7835 231.589 38C230.849 38.2279 229.943 38.3418 228.872 38.3418C227.744 38.3418 226.736 38.1367 225.847 37.7266C224.958 37.305 224.258 36.667 223.745 35.8125C223.232 34.958 222.976 33.8757 222.976 32.5654C222.976 30.6172 223.699 29.1532 225.146 28.1733C226.605 27.1935 228.804 26.6523 231.743 26.5498L235.024 26.4302V25.439C235.024 24.1287 234.717 23.1945 234.101 22.6362C233.498 22.078 232.643 21.7988 231.538 21.7988C230.592 21.7988 229.675 21.9355 228.787 22.209C227.898 22.4824 227.032 22.8185 226.189 23.2173L224.89 20.3804C225.813 19.8905 226.861 19.4917 228.035 19.1841C229.219 18.8765 230.45 18.7227 231.726 18.7227ZM235.007 28.9595L232.563 29.0449C230.558 29.1133 229.151 29.4551 228.342 30.0703C227.533 30.6855 227.129 31.5286 227.129 32.5996C227.129 33.5339 227.408 34.2174 227.966 34.6504C228.524 35.0719 229.259 35.2827 230.171 35.2827C231.561 35.2827 232.711 34.8896 233.623 34.1035C234.546 33.306 235.007 32.1382 235.007 30.6001V28.9595ZM253.423 18.7227C255.553 18.7227 257.211 19.2752 258.396 20.3804C259.592 21.4741 260.19 23.2344 260.19 25.6611V38H256.174V26.4131C256.174 24.9434 255.872 23.8439 255.268 23.1147C254.664 22.3742 253.73 22.0039 252.466 22.0039C250.631 22.0039 249.355 22.5679 248.637 23.6958C247.931 24.8237 247.578 26.4587 247.578 28.6006V38H243.562V19.0815H246.689L247.253 21.645H247.475C247.885 20.9842 248.392 20.443 248.996 20.0215C249.612 19.5885 250.295 19.2638 251.047 19.0474C251.81 18.8309 252.602 18.7227 253.423 18.7227ZM281.879 38H277.761V16.501H270.446V13.0146H289.177V16.501H281.879V38ZM295.561 11.4082V18.0903C295.561 18.7853 295.538 19.4632 295.492 20.124C295.458 20.7848 295.418 21.2975 295.373 21.6621H295.595C295.994 21.0013 296.483 20.4601 297.065 20.0386C297.646 19.6056 298.295 19.2809 299.013 19.0645C299.742 18.848 300.517 18.7397 301.337 18.7397C302.784 18.7397 304.014 18.9847 305.028 19.4746C306.042 19.9531 306.817 20.6994 307.353 21.7134C307.9 22.7274 308.173 24.0433 308.173 25.6611V38H304.157V26.4131C304.157 24.9434 303.855 23.8439 303.251 23.1147C302.647 22.3742 301.713 22.0039 300.448 22.0039C299.229 22.0039 298.261 22.2603 297.543 22.7729C296.837 23.2743 296.33 24.0205 296.022 25.0117C295.714 25.9915 295.561 27.1878 295.561 28.6006V38H291.545V11.4082H295.561ZM320.282 18.7227C321.968 18.7227 323.415 19.0701 324.623 19.7651C325.831 20.4601 326.759 21.4456 327.409 22.7217C328.058 23.9977 328.383 25.5244 328.383 27.3018V29.4551H315.753C315.799 31.2894 316.289 32.7021 317.223 33.6934C318.169 34.6846 319.49 35.1802 321.188 35.1802C322.396 35.1802 323.478 35.0662 324.435 34.8384C325.403 34.5991 326.4 34.2516 327.426 33.7959V37.0601C326.48 37.5044 325.517 37.8291 324.538 38.0342C323.558 38.2393 322.384 38.3418 321.017 38.3418C319.16 38.3418 317.525 37.9829 316.112 37.2651C314.711 36.536 313.611 35.4536 312.814 34.0181C312.028 32.5825 311.635 30.7995 311.635 28.6689C311.635 26.5498 311.994 24.7497 312.711 23.2686C313.429 21.7874 314.437 20.6595 315.736 19.8848C317.035 19.11 318.55 18.7227 320.282 18.7227ZM320.282 21.7476C319.017 21.7476 317.992 22.1577 317.206 22.978C316.431 23.7983 315.975 25.0003 315.839 26.584H324.452C324.441 25.6383 324.281 24.8009 323.974 24.0718C323.677 23.3426 323.222 22.7729 322.606 22.3628C322.003 21.9526 321.228 21.7476 320.282 21.7476ZM339.279 18.7227C341.671 18.7227 343.477 19.2524 344.696 20.312C345.926 21.3716 346.542 23.0236 346.542 25.2681V38H343.688L342.919 35.3169H342.782C342.246 36.0005 341.694 36.5645 341.124 37.0088C340.555 37.4531 339.894 37.7835 339.142 38C338.401 38.2279 337.495 38.3418 336.424 38.3418C335.297 38.3418 334.288 38.1367 333.4 37.7266C332.511 37.305 331.81 36.667 331.298 35.8125C330.785 34.958 330.529 33.8757 330.529 32.5654C330.529 30.6172 331.252 29.1532 332.699 28.1733C334.157 27.1935 336.356 26.6523 339.296 26.5498L342.577 26.4302V25.439C342.577 24.1287 342.269 23.1945 341.654 22.6362C341.05 22.078 340.196 21.7988 339.091 21.7988C338.145 21.7988 337.228 21.9355 336.339 22.209C335.45 22.4824 334.584 22.8185 333.741 23.2173L332.443 20.3804C333.365 19.8905 334.414 19.4917 335.587 19.1841C336.772 18.8765 338.002 18.7227 339.279 18.7227ZM342.56 28.9595L340.116 29.0449C338.111 29.1133 336.704 29.4551 335.895 30.0703C335.086 30.6855 334.681 31.5286 334.681 32.5996C334.681 33.5339 334.96 34.2174 335.519 34.6504C336.077 35.0719 336.812 35.2827 337.723 35.2827C339.113 35.2827 340.264 34.8896 341.175 34.1035C342.098 33.306 342.56 32.1382 342.56 30.6001V28.9595ZM358.155 35.0947C358.679 35.0947 359.198 35.0492 359.71 34.958C360.223 34.8555 360.69 34.7358 361.112 34.5991V37.6411C360.667 37.8348 360.092 38 359.386 38.1367C358.679 38.2734 357.944 38.3418 357.181 38.3418C356.11 38.3418 355.147 38.1652 354.293 37.812C353.438 37.4474 352.761 36.8265 352.259 35.9492C351.758 35.0719 351.507 33.8586 351.507 32.3091V22.1406H348.927V20.3462L351.695 18.9277L353.011 14.8774H355.541V19.0815H360.958V22.1406H355.541V32.2578C355.541 33.2148 355.78 33.9269 356.258 34.394C356.737 34.8612 357.369 35.0947 358.155 35.0947ZM371.444 18.7227C373.13 18.7227 374.577 19.0701 375.784 19.7651C376.992 20.4601 377.921 21.4456 378.57 22.7217C379.22 23.9977 379.544 25.5244 379.544 27.3018V29.4551H366.915C366.96 31.2894 367.45 32.7021 368.385 33.6934C369.33 34.6846 370.652 35.1802 372.349 35.1802C373.557 35.1802 374.639 35.0662 375.596 34.8384C376.565 34.5991 377.562 34.2516 378.587 33.7959V37.0601C377.642 37.5044 376.679 37.8291 375.699 38.0342C374.719 38.2393 373.546 38.3418 372.179 38.3418C370.321 38.3418 368.687 37.9829 367.274 37.2651C365.872 36.536 364.773 35.4536 363.975 34.0181C363.189 32.5825 362.796 30.7995 362.796 28.6689C362.796 26.5498 363.155 24.7497 363.873 23.2686C364.591 21.7874 365.599 20.6595 366.898 19.8848C368.197 19.11 369.712 18.7227 371.444 18.7227ZM371.444 21.7476C370.179 21.7476 369.154 22.1577 368.367 22.978C367.593 23.7983 367.137 25.0003 367 26.584H375.614C375.602 25.6383 375.443 24.8009 375.135 24.0718C374.839 23.3426 374.383 22.7729 373.768 22.3628C373.164 21.9526 372.389 21.7476 371.444 21.7476ZM392.61 18.7227C392.929 18.7227 393.277 18.7397 393.653 18.7739C394.029 18.8081 394.354 18.8537 394.627 18.9106L394.251 22.6704C394.012 22.6021 393.716 22.5508 393.362 22.5166C393.021 22.4824 392.713 22.4653 392.44 22.4653C391.722 22.4653 391.038 22.585 390.389 22.8242C389.739 23.0521 389.164 23.4053 388.663 23.8838C388.161 24.3509 387.768 24.9377 387.483 25.644C387.199 26.3504 387.056 27.1707 387.056 28.105V38H383.023V19.0815H386.168L386.714 22.4141H386.902C387.278 21.7419 387.746 21.1266 388.304 20.5684C388.862 20.0101 389.5 19.5658 390.218 19.2354C390.947 18.8936 391.745 18.7227 392.61 18.7227ZM396.499 35.8809C396.499 34.9466 396.739 34.2915 397.217 33.9155C397.707 33.5282 398.3 33.3345 398.995 33.3345C399.69 33.3345 400.282 33.5282 400.772 33.9155C401.273 34.2915 401.524 34.9466 401.524 35.8809C401.524 36.7923 401.273 37.4531 400.772 37.8633C400.282 38.262 399.69 38.4614 398.995 38.4614C398.3 38.4614 397.707 38.262 397.217 37.8633C396.739 37.4531 396.499 36.7923 396.499 35.8809Z" fill="black"/>
<path d="M246.07 59H244.734V48.75H241.141V47.5781H249.648V48.75H246.07V59ZM251.997 50.4375V59H250.7V50.4375H251.997ZM251.364 47.2344C251.577 47.2344 251.76 47.3047 251.911 47.4453C252.067 47.5807 252.145 47.7943 252.145 48.0859C252.145 48.3724 252.067 48.5859 251.911 48.7266C251.76 48.8672 251.577 48.9375 251.364 48.9375C251.14 48.9375 250.952 48.8672 250.801 48.7266C250.655 48.5859 250.583 48.3724 250.583 48.0859C250.583 47.7943 250.655 47.5807 250.801 47.4453C250.952 47.3047 251.14 47.2344 251.364 47.2344ZM257.696 59.1562C256.925 59.1562 256.246 58.9974 255.657 58.6797C255.069 58.362 254.61 57.8776 254.282 57.2266C253.954 56.5755 253.79 55.7552 253.79 54.7656C253.79 53.7292 253.962 52.8828 254.306 52.2266C254.655 51.5651 255.134 51.0755 255.743 50.7578C256.352 50.4401 257.045 50.2812 257.821 50.2812C258.248 50.2812 258.66 50.3255 259.056 50.4141C259.457 50.4974 259.785 50.6042 260.04 50.7344L259.649 51.8203C259.389 51.7161 259.087 51.6224 258.743 51.5391C258.405 51.4557 258.087 51.4141 257.79 51.4141C257.196 51.4141 256.701 51.5417 256.306 51.7969C255.915 52.0521 255.621 52.4271 255.423 52.9219C255.23 53.4167 255.134 54.026 255.134 54.75C255.134 55.4427 255.227 56.0339 255.415 56.5234C255.608 57.013 255.892 57.388 256.267 57.6484C256.647 57.9036 257.121 58.0312 257.688 58.0312C258.142 58.0312 258.55 57.9844 258.915 57.8906C259.28 57.7917 259.61 57.6771 259.907 57.5469V58.7031C259.621 58.849 259.3 58.9609 258.946 59.0391C258.597 59.1172 258.181 59.1562 257.696 59.1562ZM262.747 46.8438V53.1562C262.747 53.3646 262.74 53.6198 262.724 53.9219C262.708 54.2188 262.695 54.4818 262.685 54.7109H262.74C262.849 54.5755 263.008 54.375 263.216 54.1094C263.43 53.8438 263.609 53.6302 263.755 53.4688L266.599 50.4375H268.122L264.677 54.0938L268.372 59H266.81L263.787 54.9453L262.747 55.8984V59H261.458V46.8438H262.747ZM272.682 50.2812C273.411 50.2812 274.036 50.4427 274.557 50.7656C275.077 51.0885 275.476 51.5417 275.752 52.125C276.028 52.7031 276.166 53.3802 276.166 54.1562V54.9609H270.252C270.267 55.9661 270.517 56.7318 271.002 57.2578C271.486 57.7839 272.169 58.0469 273.049 58.0469C273.59 58.0469 274.07 57.9974 274.486 57.8984C274.903 57.7995 275.335 57.6536 275.783 57.4609V58.6016C275.351 58.7943 274.921 58.9349 274.494 59.0234C274.072 59.112 273.572 59.1562 272.994 59.1562C272.171 59.1562 271.452 58.9896 270.838 58.6562C270.228 58.3177 269.754 57.8229 269.416 57.1719C269.077 56.5208 268.908 55.724 268.908 54.7812C268.908 53.8594 269.062 53.0625 269.369 52.3906C269.682 51.7135 270.119 51.1927 270.682 50.8281C271.249 50.4635 271.916 50.2812 272.682 50.2812ZM272.666 51.3438C271.973 51.3438 271.421 51.5703 271.01 52.0234C270.598 52.4766 270.353 53.1094 270.275 53.9219H274.807C274.801 53.4115 274.721 52.9635 274.564 52.5781C274.413 52.1875 274.182 51.8854 273.869 51.6719C273.557 51.4531 273.156 51.3438 272.666 51.3438ZM280.655 58.0938C280.868 58.0938 281.087 58.0755 281.311 58.0391C281.535 58.0026 281.717 57.9583 281.858 57.9062V58.9141C281.707 58.9818 281.496 59.0391 281.225 59.0859C280.959 59.1328 280.699 59.1562 280.444 59.1562C279.991 59.1562 279.579 59.0781 279.209 58.9219C278.84 58.7604 278.543 58.4896 278.319 58.1094C278.1 57.7292 277.991 57.2031 277.991 56.5312V51.4531H276.772V50.8203L277.998 50.3125L278.514 48.4531H279.295V50.4375H281.803V51.4531H279.295V56.4922C279.295 57.0286 279.418 57.4297 279.662 57.6953C279.912 57.9609 280.243 58.0938 280.655 58.0938ZM286.984 47.5781H290.218C291.645 47.5781 292.718 47.7917 293.437 48.2188C294.156 48.6458 294.515 49.3724 294.515 50.3984C294.515 50.8411 294.429 51.2396 294.257 51.5938C294.091 51.9427 293.846 52.2318 293.523 52.4609C293.2 52.6901 292.801 52.849 292.327 52.9375V53.0156C292.827 53.0938 293.27 53.237 293.656 53.4453C294.041 53.6536 294.343 53.9453 294.562 54.3203C294.781 54.6953 294.89 55.1719 294.89 55.75C294.89 56.4531 294.726 57.0469 294.398 57.5312C294.075 58.0156 293.617 58.3828 293.023 58.6328C292.429 58.8776 291.726 59 290.913 59H286.984V47.5781ZM288.312 52.4766H290.499C291.494 52.4766 292.182 52.3125 292.562 51.9844C292.947 51.6562 293.14 51.1771 293.14 50.5469C293.14 49.8958 292.911 49.4271 292.452 49.1406C291.999 48.8542 291.275 48.7109 290.281 48.7109H288.312V52.4766ZM288.312 53.5938V57.8672H290.687C291.702 57.8672 292.421 57.6693 292.843 57.2734C293.265 56.8724 293.476 56.3333 293.476 55.6562C293.476 55.224 293.38 54.8542 293.187 54.5469C292.999 54.2396 292.692 54.0052 292.265 53.8438C291.843 53.6771 291.278 53.5938 290.57 53.5938H288.312ZM304.035 54.7031C304.035 55.4062 303.944 56.0339 303.762 56.5859C303.579 57.138 303.316 57.6042 302.972 57.9844C302.629 58.3646 302.212 58.6562 301.722 58.8594C301.238 59.0573 300.689 59.1562 300.074 59.1562C299.501 59.1562 298.975 59.0573 298.496 58.8594C298.022 58.6562 297.611 58.3646 297.262 57.9844C296.918 57.6042 296.65 57.138 296.457 56.5859C296.269 56.0339 296.176 55.4062 296.176 54.7031C296.176 53.7656 296.334 52.9688 296.652 52.3125C296.97 51.651 297.423 51.1484 298.012 50.8047C298.605 50.4557 299.311 50.2812 300.129 50.2812C300.91 50.2812 301.592 50.4557 302.176 50.8047C302.764 51.1536 303.22 51.6589 303.543 52.3203C303.871 52.9766 304.035 53.7708 304.035 54.7031ZM297.519 54.7031C297.519 55.3906 297.611 55.987 297.793 56.4922C297.975 56.9974 298.256 57.388 298.637 57.6641C299.017 57.9401 299.506 58.0781 300.105 58.0781C300.699 58.0781 301.186 57.9401 301.566 57.6641C301.952 57.388 302.236 56.9974 302.418 56.4922C302.6 55.987 302.691 55.3906 302.691 54.7031C302.691 54.0208 302.6 53.4323 302.418 52.9375C302.236 52.4375 301.954 52.0521 301.574 51.7812C301.194 51.5104 300.702 51.375 300.097 51.375C299.207 51.375 298.553 51.6693 298.137 52.2578C297.725 52.8464 297.519 53.6615 297.519 54.7031ZM313.18 54.7031C313.18 55.4062 313.089 56.0339 312.907 56.5859C312.724 57.138 312.461 57.6042 312.118 57.9844C311.774 58.3646 311.357 58.6562 310.868 58.8594C310.383 59.0573 309.834 59.1562 309.219 59.1562C308.646 59.1562 308.12 59.0573 307.641 58.8594C307.167 58.6562 306.756 58.3646 306.407 57.9844C306.063 57.6042 305.795 57.138 305.602 56.5859C305.414 56.0339 305.321 55.4062 305.321 54.7031C305.321 53.7656 305.479 52.9688 305.797 52.3125C306.115 51.651 306.568 51.1484 307.157 50.8047C307.75 50.4557 308.456 50.2812 309.274 50.2812C310.055 50.2812 310.737 50.4557 311.321 50.8047C311.909 51.1536 312.365 51.6589 312.688 52.3203C313.016 52.9766 313.18 53.7708 313.18 54.7031ZM306.664 54.7031C306.664 55.3906 306.756 55.987 306.938 56.4922C307.12 56.9974 307.401 57.388 307.782 57.6641C308.162 57.9401 308.651 58.0781 309.25 58.0781C309.844 58.0781 310.331 57.9401 310.711 57.6641C311.097 57.388 311.381 56.9974 311.563 56.4922C311.745 55.987 311.836 55.3906 311.836 54.7031C311.836 54.0208 311.745 53.4323 311.563 52.9375C311.381 52.4375 311.099 52.0521 310.719 51.7812C310.339 51.5104 309.847 51.375 309.243 51.375C308.352 51.375 307.698 51.6693 307.282 52.2578C306.87 52.8464 306.664 53.6615 306.664 54.7031ZM316.231 46.8438V53.1562C316.231 53.3646 316.223 53.6198 316.208 53.9219C316.192 54.2188 316.179 54.4818 316.169 54.7109H316.223C316.333 54.5755 316.492 54.375 316.7 54.1094C316.914 53.8438 317.093 53.6302 317.239 53.4688L320.083 50.4375H321.606L318.161 54.0938L321.856 59H320.294L317.27 54.9453L316.231 55.8984V59H314.942V46.8438H316.231ZM324.165 50.4375V59H322.868V50.4375H324.165ZM323.533 47.2344C323.746 47.2344 323.928 47.3047 324.079 47.4453C324.236 47.5807 324.314 47.7943 324.314 48.0859C324.314 48.3724 324.236 48.5859 324.079 48.7266C323.928 48.8672 323.746 48.9375 323.533 48.9375C323.309 48.9375 323.121 48.8672 322.97 48.7266C322.824 48.5859 322.751 48.3724 322.751 48.0859C322.751 47.7943 322.824 47.5807 322.97 47.4453C323.121 47.3047 323.309 47.2344 323.533 47.2344ZM330.49 50.2812C331.506 50.2812 332.274 50.5312 332.795 51.0312C333.316 51.526 333.576 52.3229 333.576 53.4219V59H332.295V53.5078C332.295 52.7943 332.131 52.2604 331.802 51.9062C331.48 51.5521 330.982 51.375 330.31 51.375C329.362 51.375 328.696 51.6432 328.31 52.1797C327.925 52.7161 327.732 53.4948 327.732 54.5156V59H326.435V50.4375H327.482L327.677 51.6719H327.748C327.93 51.3698 328.162 51.1172 328.443 50.9141C328.724 50.7057 329.039 50.5495 329.388 50.4453C329.737 50.3359 330.105 50.2812 330.49 50.2812ZM338.158 62.8438C337.033 62.8438 336.166 62.6328 335.557 62.2109C334.948 61.7943 334.643 61.2083 334.643 60.4531C334.643 59.9167 334.812 59.4583 335.151 59.0781C335.494 58.6979 335.968 58.4453 336.573 58.3203C336.349 58.2161 336.156 58.0599 335.994 57.8516C335.838 57.6432 335.76 57.4036 335.76 57.1328C335.76 56.8203 335.846 56.5469 336.018 56.3125C336.195 56.0729 336.463 55.8438 336.823 55.625C336.375 55.4427 336.01 55.1354 335.729 54.7031C335.453 54.2656 335.315 53.7578 335.315 53.1797C335.315 52.5651 335.442 52.0417 335.698 51.6094C335.953 51.1719 336.323 50.8385 336.807 50.6094C337.291 50.3802 337.877 50.2656 338.565 50.2656C338.716 50.2656 338.867 50.2734 339.018 50.2891C339.174 50.2995 339.323 50.3177 339.463 50.3438C339.604 50.3646 339.726 50.3906 339.83 50.4219H342.768V51.2578L341.19 51.4531C341.346 51.6562 341.476 51.901 341.58 52.1875C341.684 52.474 341.737 52.7917 341.737 53.1406C341.737 53.9948 341.448 54.6745 340.869 55.1797C340.291 55.6797 339.497 55.9297 338.487 55.9297C338.247 55.9297 338.002 55.9089 337.752 55.8672C337.497 56.0078 337.302 56.1641 337.166 56.3359C337.036 56.5078 336.971 56.7057 336.971 56.9297C336.971 57.0964 337.02 57.2292 337.119 57.3281C337.224 57.4271 337.372 57.5 337.565 57.5469C337.757 57.5885 337.989 57.6094 338.26 57.6094H339.768C340.7 57.6094 341.414 57.8047 341.908 58.1953C342.408 58.5859 342.658 59.1562 342.658 59.9062C342.658 60.8542 342.273 61.5807 341.502 62.0859C340.731 62.5911 339.617 62.8438 338.158 62.8438ZM338.198 61.8281C338.906 61.8281 339.492 61.7552 339.955 61.6094C340.424 61.4688 340.773 61.263 341.002 60.9922C341.237 60.7266 341.354 60.4089 341.354 60.0391C341.354 59.6953 341.276 59.4349 341.119 59.2578C340.963 59.0859 340.734 58.9714 340.432 58.9141C340.13 58.8516 339.76 58.8203 339.323 58.8203H337.838C337.453 58.8203 337.117 58.8802 336.83 59C336.544 59.1198 336.323 59.2969 336.166 59.5312C336.015 59.7656 335.94 60.0573 335.94 60.4062C335.94 60.8698 336.135 61.2214 336.526 61.4609C336.916 61.7057 337.474 61.8281 338.198 61.8281ZM338.533 54.9844C339.153 54.9844 339.619 54.8281 339.932 54.5156C340.244 54.2031 340.401 53.7474 340.401 53.1484C340.401 52.5078 340.242 52.0286 339.924 51.7109C339.606 51.388 339.138 51.2266 338.518 51.2266C337.924 51.2266 337.466 51.3932 337.143 51.7266C336.825 52.0547 336.666 52.5365 336.666 53.1719C336.666 53.7552 336.828 54.2031 337.151 54.5156C337.474 54.8281 337.934 54.9844 338.533 54.9844ZM360.823 47.5781L357.769 59H356.433L354.167 51.3125C354.099 51.0938 354.034 50.875 353.972 50.6562C353.915 50.4323 353.86 50.2214 353.808 50.0234C353.756 49.8203 353.711 49.6432 353.675 49.4922C353.644 49.3359 353.62 49.2188 353.605 49.1406C353.594 49.2188 353.573 49.3333 353.542 49.4844C353.516 49.6354 353.48 49.8099 353.433 50.0078C353.391 50.2057 353.339 50.4167 353.277 50.6406C353.219 50.8646 353.157 51.0911 353.089 51.3203L350.886 59H349.55L346.519 47.5781H347.902L349.738 54.7422C349.8 54.9818 349.857 55.2188 349.909 55.4531C349.967 55.6823 350.016 55.9062 350.058 56.125C350.105 56.3438 350.146 56.5573 350.183 56.7656C350.219 56.974 350.253 57.1771 350.284 57.375C350.31 57.1719 350.344 56.9609 350.386 56.7422C350.428 56.5182 350.472 56.2917 350.519 56.0625C350.571 55.8333 350.626 55.6016 350.683 55.3672C350.745 55.1328 350.81 54.8984 350.878 54.6641L352.933 47.5781H354.3L356.441 54.7188C356.514 54.9635 356.581 55.2057 356.644 55.4453C356.706 55.6849 356.761 55.9193 356.808 56.1484C356.86 56.3724 356.904 56.5885 356.941 56.7969C356.982 57 357.019 57.1927 357.05 57.375C357.086 57.1198 357.131 56.8516 357.183 56.5703C357.235 56.2891 357.295 55.9948 357.363 55.6875C357.435 55.3802 357.514 55.0625 357.597 54.7344L359.433 47.5781H360.823ZM365.25 50.2812C365.979 50.2812 366.604 50.4427 367.125 50.7656C367.646 51.0885 368.044 51.5417 368.32 52.125C368.596 52.7031 368.734 53.3802 368.734 54.1562V54.9609H362.82C362.836 55.9661 363.086 56.7318 363.57 57.2578C364.054 57.7839 364.737 58.0469 365.617 58.0469C366.159 58.0469 366.638 57.9974 367.054 57.8984C367.471 57.7995 367.903 57.6536 368.351 57.4609V58.6016C367.919 58.7943 367.489 58.9349 367.062 59.0234C366.64 59.112 366.14 59.1562 365.562 59.1562C364.739 59.1562 364.021 58.9896 363.406 58.6562C362.797 58.3177 362.323 57.8229 361.984 57.1719C361.646 56.5208 361.476 55.724 361.476 54.7812C361.476 53.8594 361.63 53.0625 361.937 52.3906C362.25 51.7135 362.687 51.1927 363.25 50.8281C363.817 50.4635 364.484 50.2812 365.25 50.2812ZM365.234 51.3438C364.541 51.3438 363.989 51.5703 363.578 52.0234C363.166 52.4766 362.922 53.1094 362.843 53.9219H367.375C367.369 53.4115 367.289 52.9635 367.132 52.5781C366.981 52.1875 366.75 51.8854 366.437 51.6719C366.125 51.4531 365.724 51.3438 365.234 51.3438ZM371.754 46.8438V49.8828C371.754 50.2318 371.744 50.5703 371.723 50.8984C371.707 51.2266 371.694 51.4818 371.684 51.6641H371.754C371.988 51.2786 372.327 50.9531 372.77 50.6875C373.212 50.4219 373.777 50.2891 374.465 50.2891C375.538 50.2891 376.392 50.6615 377.027 51.4062C377.668 52.1458 377.988 53.2474 377.988 54.7109C377.988 55.6745 377.843 56.487 377.551 57.1484C377.259 57.8099 376.848 58.3099 376.317 58.6484C375.785 58.987 375.158 59.1562 374.434 59.1562C373.757 59.1562 373.199 59.0312 372.762 58.7812C372.33 58.526 371.996 58.2161 371.762 57.8516H371.66L371.395 59H370.457V46.8438H371.754ZM374.254 51.375C373.634 51.375 373.142 51.4974 372.777 51.7422C372.413 51.9818 372.15 52.3464 371.988 52.8359C371.832 53.3203 371.754 53.9349 371.754 54.6797V54.75C371.754 55.8281 371.934 56.6536 372.293 57.2266C372.652 57.7943 373.306 58.0781 374.254 58.0781C375.051 58.0781 375.647 57.7865 376.043 57.2031C376.444 56.6198 376.645 55.7865 376.645 54.7031C376.645 53.599 376.447 52.7682 376.051 52.2109C375.66 51.6536 375.061 51.375 374.254 51.375ZM385.313 56.6562C385.313 57.2031 385.175 57.6641 384.899 58.0391C384.628 58.4089 384.238 58.6875 383.727 58.875C383.222 59.0625 382.618 59.1562 381.915 59.1562C381.316 59.1562 380.798 59.1094 380.36 59.0156C379.923 58.9219 379.54 58.7891 379.212 58.6172V57.4219C379.561 57.5938 379.977 57.75 380.462 57.8906C380.946 58.0312 381.441 58.1016 381.946 58.1016C382.686 58.1016 383.222 57.9818 383.555 57.7422C383.889 57.5026 384.055 57.1771 384.055 56.7656C384.055 56.5312 383.988 56.3255 383.852 56.1484C383.722 55.9661 383.501 55.7917 383.188 55.625C382.876 55.4531 382.443 55.2656 381.891 55.0625C381.344 54.8542 380.87 54.6484 380.469 54.4453C380.074 54.237 379.766 53.9844 379.548 53.6875C379.334 53.3906 379.227 53.0052 379.227 52.5312C379.227 51.8073 379.519 51.2526 380.102 50.8672C380.691 50.4766 381.462 50.2812 382.415 50.2812C382.93 50.2812 383.412 50.3333 383.86 50.4375C384.313 50.5365 384.735 50.6719 385.126 50.8438L384.688 51.8828C384.334 51.7318 383.956 51.6042 383.555 51.5C383.154 51.3958 382.745 51.3438 382.329 51.3438C381.73 51.3438 381.269 51.4427 380.946 51.6406C380.628 51.8385 380.469 52.1094 380.469 52.4531C380.469 52.7188 380.542 52.9375 380.688 53.1094C380.839 53.2812 381.079 53.4427 381.407 53.5938C381.735 53.7448 382.167 53.9219 382.704 54.125C383.24 54.3229 383.704 54.5286 384.094 54.7422C384.485 54.9505 384.784 55.2057 384.993 55.5078C385.206 55.8047 385.313 56.1875 385.313 56.6562ZM388.216 50.4375V59H386.919V50.4375H388.216ZM387.583 47.2344C387.797 47.2344 387.979 47.3047 388.13 47.4453C388.286 47.5807 388.364 47.7943 388.364 48.0859C388.364 48.3724 388.286 48.5859 388.13 48.7266C387.979 48.8672 387.797 48.9375 387.583 48.9375C387.359 48.9375 387.172 48.8672 387.021 48.7266C386.875 48.5859 386.802 48.3724 386.802 48.0859C386.802 47.7943 386.875 47.5807 387.021 47.4453C387.172 47.3047 387.359 47.2344 387.583 47.2344ZM393.252 58.0938C393.465 58.0938 393.684 58.0755 393.908 58.0391C394.132 58.0026 394.314 57.9583 394.455 57.9062V58.9141C394.304 58.9818 394.093 59.0391 393.822 59.0859C393.556 59.1328 393.296 59.1562 393.041 59.1562C392.587 59.1562 392.176 59.0781 391.806 58.9219C391.436 58.7604 391.14 58.4896 390.916 58.1094C390.697 57.7292 390.587 57.2031 390.587 56.5312V51.4531H389.369V50.8203L390.595 50.3125L391.111 48.4531H391.892V50.4375H394.4V51.4531H391.892V56.4922C391.892 57.0286 392.015 57.4297 392.259 57.6953C392.509 57.9609 392.84 58.0938 393.252 58.0938ZM399.006 50.2812C399.735 50.2812 400.36 50.4427 400.881 50.7656C401.402 51.0885 401.8 51.5417 402.076 52.125C402.352 52.7031 402.49 53.3802 402.49 54.1562V54.9609H396.576C396.592 55.9661 396.842 56.7318 397.326 57.2578C397.811 57.7839 398.493 58.0469 399.373 58.0469C399.915 58.0469 400.394 57.9974 400.811 57.8984C401.227 57.7995 401.66 57.6536 402.107 57.4609V58.6016C401.675 58.7943 401.246 58.9349 400.818 59.0234C400.397 59.112 399.897 59.1562 399.318 59.1562C398.496 59.1562 397.777 58.9896 397.162 58.6562C396.553 58.3177 396.079 57.8229 395.74 57.1719C395.402 56.5208 395.232 55.724 395.232 54.7812C395.232 53.8594 395.386 53.0625 395.693 52.3906C396.006 51.7135 396.443 51.1927 397.006 50.8281C397.574 50.4635 398.24 50.2812 399.006 50.2812ZM398.99 51.3438C398.298 51.3438 397.746 51.5703 397.334 52.0234C396.923 52.4766 396.678 53.1094 396.6 53.9219H401.131C401.126 53.4115 401.045 52.9635 400.889 52.5781C400.738 52.1875 400.506 51.8854 400.193 51.6719C399.881 51.4531 399.48 51.3438 398.99 51.3438Z" fill="#6B6B6B"/>
</svg>
